<svg xmlns="http://www.w3.org/2000/svg" version="1.1" xmlns:xlink="http://www.w3.org/1999/xlink" xmlns:svgjs="http://svgjs.dev/svgjs" width="2000" height="924" viewBox="0 0 2000 924"><g transform="matrix(1,0,0,1,-1.2121212121212466,-1.6003845531673164)"><svg viewBox="0 0 396 183" data-background-color="#dfdad6" preserveAspectRatio="xMidYMid meet" height="924" width="2000" xmlns="http://www.w3.org/2000/svg" xmlns:xlink="http://www.w3.org/1999/xlink"><g id="tight-bounds" transform="matrix(1,0,0,1,0.2400000000000091,0.3169592783870314)"><svg viewBox="0 0 395.52 182.36608144322594" height="182.36608144322594" width="395.52"><g><svg viewBox="0 0 435.9336965012857 201" height="182.36608144322594" width="395.52"><g><rect width="8.413199687423143" height="201" x="168.49250106204585" y="0" fill="#ffffff" opacity="1" stroke-width="0" stroke="transparent" fill-opacity="1" class="rect-yte-0" data-fill-palette-color="primary" rx="1%" id="yte-0" data-palette-color="#ffffff"></rect></g><g transform="matrix(1,0,0,1,198.92978370083847,0.4999999999999858)"><svg viewBox="0 0 237.00391280044718 200.00000000000003" height="200.00000000000003" width="237.00391280044718"><g id="textblocktransform"><svg viewBox="0 0 237.00391280044718 200.00000000000003" height="200.00000000000003" width="237.00391280044718" id="textblock"><g><svg viewBox="0 0 237.00391280044718 200.00000000000003" height="200.00000000000003" width="237.00391280044718"><g transform="matrix(1,0,0,1,0,0)"><svg width="237.00391280044718" viewBox="3.3 -33.48 106.00000000000001 86.81" height="200.00000000000003" data-palette-color="#ffffff"><svg></svg><svg></svg><g class="wordmark-text-0" data-fill-palette-color="primary" id="text-0"><path d="M37.83 0h-4.06v-15.28c0-1.28-0.16-2.39-0.48-3.33-0.327-0.947-0.86-1.677-1.6-2.19-0.74-0.52-1.737-0.78-2.99-0.78v0c-1.18 0-2.203 0.243-3.07 0.73-0.867 0.48-1.567 1.127-2.1 1.94-0.533 0.807-0.91 1.727-1.13 2.76v0l-0.62-2.88h0.5c0.267-1.047 0.717-2.02 1.35-2.92 0.633-0.9 1.49-1.627 2.57-2.18 1.087-0.547 2.43-0.82 4.03-0.82v0c1.813 0 3.273 0.357 4.38 1.07 1.107 0.72 1.92 1.767 2.44 3.14 0.52 1.373 0.78 3.043 0.78 5.01v0zM7.35 0h-4.05v-24.4h4.05l-0.17 5.85 0.17 0.25zM22.58 0h-4.03v-15.28c0-1.28-0.163-2.39-0.49-3.33-0.327-0.947-0.853-1.677-1.58-2.19-0.733-0.52-1.727-0.78-2.98-0.78v0c-1.2 0-2.233 0.243-3.1 0.73-0.867 0.48-1.567 1.133-2.1 1.96-0.533 0.827-0.907 1.767-1.12 2.82v0l-0.75-2.88h0.9c0.247-1.1 0.68-2.103 1.3-3.01 0.613-0.913 1.45-1.64 2.51-2.18 1.06-0.54 2.347-0.81 3.86-0.81v0c2.253 0 3.967 0.583 5.14 1.75 1.173 1.167 1.91 2.867 2.21 5.1v0c0.087 0.333 0.147 0.697 0.18 1.09 0.033 0.387 0.05 0.773 0.05 1.16v0zM54.35 0.55v0c-3.713 0-6.513-0.91-8.4-2.73-1.88-1.813-2.82-4.413-2.82-7.8v0-4.35c0-3.433 0.873-6.077 2.62-7.93 1.753-1.86 4.313-2.79 7.68-2.79v0c2.267 0 4.157 0.42 5.67 1.26 1.52 0.84 2.663 2.037 3.43 3.59 0.767 1.547 1.15 3.397 1.15 5.55v0 0.9c0 0.533-0.023 1.067-0.07 1.6-0.04 0.533-0.093 1.057-0.16 1.57v0h-3.72c0.033-0.8 0.053-1.557 0.06-2.27 0.007-0.72 0.01-1.38 0.01-1.98v0c0-1.48-0.237-2.733-0.71-3.76-0.473-1.027-1.183-1.81-2.13-2.35-0.94-0.54-2.117-0.81-3.53-0.81v0c-2.1 0-3.677 0.607-4.73 1.82-1.047 1.22-1.57 2.963-1.57 5.23v0 2.32l0.02 0.5v2.33c0 1.013 0.15 1.93 0.45 2.75 0.3 0.813 0.77 1.517 1.41 2.11 0.647 0.593 1.463 1.043 2.45 1.35 0.993 0.307 2.173 0.46 3.54 0.46v0c1.587 0 3.063-0.207 4.43-0.62 1.367-0.42 2.65-0.987 3.85-1.7v0l-0.38 3.5c-1.08 0.68-2.337 1.227-3.77 1.64-1.433 0.407-3.027 0.61-4.78 0.61zM62.6-10.58h-17.35v-3.05h17.35zM77.13 0.53v0c-2.933 0-5.167-0.91-6.7-2.73-1.533-1.82-2.3-4.47-2.3-7.95v0-4.03c0-3.5 0.773-6.17 2.32-8.01 1.553-1.84 3.837-2.76 6.85-2.76v0c1.5 0 2.8 0.253 3.9 0.76 1.1 0.507 1.993 1.22 2.68 2.14 0.68 0.913 1.137 1.997 1.37 3.25v0h1.33l-1.2 3.72c-0.053-1.433-0.377-2.637-0.97-3.61-0.587-0.973-1.387-1.71-2.4-2.21-1.007-0.5-2.16-0.75-3.46-0.75v0c-2.067 0-3.647 0.6-4.74 1.8-1.087 1.2-1.63 2.967-1.63 5.3v0 4.65c0 2.3 0.543 4.05 1.63 5.25 1.093 1.2 2.673 1.8 4.74 1.8v0c1.233 0 2.327-0.237 3.28-0.71 0.947-0.48 1.733-1.14 2.36-1.98 0.627-0.84 1.057-1.793 1.29-2.86v0l1 2.9h-1.2c-0.233 1.1-0.68 2.107-1.34 3.02-0.66 0.92-1.543 1.65-2.65 2.19-1.107 0.547-2.493 0.82-4.16 0.82zM89.33 0h-4.05l0.17-5.9-0.07-1.3v-10.2l0.02-0.85-0.1-6.93v-7.95h4.03zM100.05 0h-4.05v-24.4h4.05zM98.03-28.4v0c-0.833 0-1.457-0.22-1.87-0.66-0.407-0.447-0.61-1.053-0.61-1.82v0-0.12c0-0.787 0.203-1.397 0.61-1.83 0.413-0.433 1.037-0.65 1.87-0.65v0c0.833 0 1.457 0.217 1.87 0.65 0.42 0.433 0.63 1.043 0.63 1.83v0 0.12c0 0.787-0.21 1.397-0.63 1.83-0.413 0.433-1.037 0.65-1.87 0.65z" fill="#ffffff" fill-rule="nonzero" stroke="none" stroke-width="1" stroke-linecap="butt" stroke-linejoin="miter" stroke-miterlimit="10" stroke-dasharray="" stroke-dashoffset="0" font-family="none" font-weight="none" font-size="none" text-anchor="none" style="mix-blend-mode: normal" data-fill-palette-color="primary" opacity="1"></path><path transform="translate(0,44.73)" d="M15.33 0.53v0c-1.5 0-2.8-0.253-3.9-0.76-1.1-0.5-1.993-1.217-2.68-2.15-0.68-0.933-1.137-2.017-1.37-3.25v0h-1.33l1.18-3.8c0.067 1.467 0.393 2.69 0.98 3.67 0.593 0.973 1.4 1.7 2.42 2.18 1.013 0.487 2.163 0.73 3.45 0.73v0c2.047 0 3.617-0.6 4.71-1.8 1.093-1.2 1.64-2.96 1.64-5.28v0-4.67c0-2.3-0.543-4.05-1.63-5.25-1.08-1.2-2.653-1.8-4.72-1.8v0c-1.233 0-2.327 0.24-3.28 0.72-0.947 0.487-1.733 1.147-2.36 1.98-0.627 0.833-1.057 1.783-1.29 2.85v0l-1-2.83h1.18c0.267-1.113 0.72-2.123 1.36-3.03 0.64-0.913 1.523-1.64 2.65-2.18 1.127-0.54 2.513-0.81 4.16-0.81v0c2.933 0 5.167 0.913 6.7 2.74 1.533 1.82 2.3 4.463 2.3 7.93v0 4.05c0 3.5-0.77 6.167-2.31 8-1.54 1.84-3.827 2.76-6.86 2.76zM7.33 8.6h-4.03v-33h4.05l-0.17 5.87 0.05 1.25v10.28l-0.03 0.82 0.13 6.86zM29.85-24.4h4.03v15.18c0 1.28 0.177 2.4 0.53 3.36 0.36 0.96 0.95 1.7 1.77 2.22 0.813 0.527 1.913 0.79 3.3 0.79v0c1.3 0 2.417-0.237 3.35-0.71 0.933-0.48 1.693-1.137 2.28-1.97 0.593-0.833 1-1.773 1.22-2.82v0l0.72 2.87h-0.87c-0.253 1.1-0.713 2.107-1.38 3.02-0.667 0.907-1.563 1.63-2.69 2.17-1.12 0.547-2.507 0.82-4.16 0.82v0c-1.913 0-3.467-0.363-4.66-1.09-1.193-0.727-2.063-1.787-2.61-3.18-0.553-1.393-0.83-3.073-0.83-5.04v0zM46.15-24.4h4.05v24.4h-4.05l0.18-5.85-0.18-0.25zM60.95 0h-4.03v-33.13h4.03zM75.3 0.55v0c-1.967 0-3.683-0.213-5.15-0.64-1.467-0.427-2.683-0.89-3.65-1.39v0l-0.37-3.75c1.213 0.633 2.55 1.183 4.01 1.65 1.46 0.467 3.113 0.7 4.96 0.7v0c1.88 0 3.297-0.3 4.25-0.9 0.953-0.593 1.43-1.483 1.43-2.67v0-0.28c0-0.767-0.18-1.4-0.54-1.9-0.36-0.5-1.007-0.94-1.94-1.32-0.933-0.387-2.257-0.77-3.97-1.15v0c-2.053-0.453-3.673-0.983-4.86-1.59-1.18-0.607-2.023-1.36-2.53-2.26-0.513-0.9-0.77-2-0.77-3.3v0-0.23c0-2.133 0.743-3.75 2.23-4.85 1.487-1.1 3.72-1.65 6.7-1.65v0c1.913 0 3.577 0.217 4.99 0.65 1.407 0.433 2.56 0.917 3.46 1.45v0l0.37 3.43c-1.08-0.633-2.32-1.16-3.72-1.58-1.4-0.413-2.977-0.62-4.73-0.62v0c-1.26 0-2.283 0.13-3.07 0.39-0.787 0.253-1.353 0.62-1.7 1.1-0.353 0.473-0.53 1.043-0.53 1.71v0 0.2c0 0.733 0.177 1.353 0.53 1.86 0.347 0.507 0.977 0.95 1.89 1.33 0.907 0.373 2.17 0.733 3.79 1.08v0c2.08 0.42 3.733 0.92 4.96 1.5 1.22 0.587 2.097 1.327 2.63 2.22 0.54 0.887 0.81 2.03 0.81 3.43v0 0.43c0 2.3-0.8 4.033-2.4 5.2-1.607 1.167-3.967 1.75-7.08 1.75zM99.97 0.55v0c-3.713 0-6.51-0.91-8.39-2.73-1.887-1.813-2.83-4.413-2.83-7.8v0-4.35c0-3.433 0.877-6.077 2.63-7.93 1.747-1.86 4.303-2.79 7.67-2.79v0c2.267 0 4.157 0.42 5.67 1.26 1.52 0.84 2.663 2.037 3.43 3.59 0.767 1.547 1.15 3.397 1.15 5.55v0 0.9c0 0.533-0.02 1.067-0.06 1.6-0.047 0.533-0.1 1.057-0.16 1.57v0h-3.73c0.033-0.8 0.053-1.557 0.06-2.27 0.007-0.72 0.01-1.38 0.01-1.98v0c0-1.48-0.237-2.733-0.71-3.76-0.473-1.027-1.18-1.81-2.12-2.35-0.947-0.54-2.127-0.81-3.54-0.81v0c-2.1 0-3.673 0.607-4.72 1.82-1.053 1.22-1.58 2.963-1.58 5.23v0 2.32l0.02 0.5v2.33c0 1.013 0.15 1.93 0.45 2.75 0.3 0.813 0.773 1.517 1.42 2.11 0.64 0.593 1.457 1.043 2.45 1.35 0.993 0.307 2.173 0.46 3.54 0.46v0c1.58 0 3.053-0.207 4.42-0.62 1.367-0.42 2.65-0.987 3.85-1.7v0l-0.37 3.5c-1.087 0.68-2.347 1.227-3.78 1.64-1.433 0.407-3.027 0.61-4.78 0.61zM108.22-10.58h-17.34v-3.05h17.34z" fill="#ffffff" fill-rule="nonzero" stroke="none" stroke-width="1" stroke-linecap="butt" stroke-linejoin="miter" stroke-miterlimit="10" stroke-dasharray="" stroke-dashoffset="0" font-family="none" font-weight="none" font-size="none" text-anchor="none" style="mix-blend-mode: normal" data-fill-palette-color="primary" opacity="1"></path></g></svg></g></svg></g></svg></g></svg></g><g transform="matrix(1,0,0,1,0,27.26579094466183)"><svg viewBox="0 0 146.46841811067637 146.46841811067634" height="146.46841811067634" width="146.46841811067637"><g><svg xmlns="http://www.w3.org/2000/svg" xmlns:xlink="http://www.w3.org/1999/xlink" version="1.1" x="0" y="0" viewBox="25.354 26.245 93.668 93.66799999999999" enable-background="new 0 0 144.083 144" xml:space="preserve" height="146.46841811067634" width="146.46841811067637" class="icon-icon-0" data-fill-palette-color="accent" id="icon-0"><path d="M99.555 60.724H84.543V45.711A1.5 1.5 0 0 0 83.043 44.211H61.331A1.5 1.5 0 0 0 59.831 45.711V60.724H44.819A1.5 1.5 0 0 0 43.319 62.224V83.935A1.5 1.5 0 0 0 44.819 85.435H59.831V100.448A1.5 1.5 0 0 0 61.331 101.948H83.043A1.5 1.5 0 0 0 84.543 100.448V85.435H99.555A1.5 1.5 0 0 0 101.055 83.935V62.224A1.5 1.5 0 0 0 99.555 60.724M98.055 82.435H83.043A1.5 1.5 0 0 0 81.543 83.935V98.948H62.831V83.935A1.5 1.5 0 0 0 61.331 82.435H46.319V63.724H61.331A1.5 1.5 0 0 0 62.831 62.224V47.211H81.543V62.224A1.5 1.5 0 0 0 83.043 63.724H98.055z" fill="#f6f6f6" data-fill-palette-color="accent"></path><path d="M72.188 26.245C46.364 26.245 25.354 47.255 25.354 73.079S46.364 119.913 72.188 119.913 119.022 98.903 119.022 73.079 98.012 26.245 72.188 26.245M72.188 116.913C48.018 116.913 28.354 97.249 28.354 73.079S48.018 29.245 72.188 29.245 116.022 48.909 116.022 73.079 96.358 116.913 72.188 116.913" fill="#f6f6f6" data-fill-palette-color="accent"></path></svg></g></svg></g></svg></g><defs></defs></svg><rect width="395.52" height="182.36608144322594" fill="none" stroke="none" visibility="hidden"></rect></g></svg></g></svg>